<?xml version="1.0" encoding="utf-8"?>
<svg version="1.1" xmlns:xlink="http://www.w3.org/1999/xlink" width="18px" height="18px" preserveAspectRatio="xMinYMid meet" viewBox="1491 742  18 16" xmlns="http://www.w3.org/2000/svg">
  <path d="M 904 749.5  L 1493.5 749.5  L 1493.5 750.5  L 1498.5 750.5  " stroke-width="1" stroke="#ff0000" fill="none" />
  <path d="M 902 746.5  A 3 3 0 0 0 899 749.5 A 3 3 0 0 0 902 752.5 A 3 3 0 0 0 905 749.5 A 3 3 0 0 0 902 746.5 Z M 902 747.5  A 2 2 0 0 1 904 749.5 A 2 2 0 0 1 902 751.5 A 2 2 0 0 1 900 749.5 A 2 2 0 0 1 902 747.5 Z M 1500.5 747.5  A 3 3 0 0 0 1497.5 750.5 A 3 3 0 0 0 1500.5 753.5 A 3 3 0 0 0 1503.5 750.5 A 3 3 0 0 0 1500.5 747.5 Z M 1500.5 748.5  A 2 2 0 0 1 1502.5 750.5 A 2 2 0 0 1 1500.5 752.5 A 2 2 0 0 1 1498.5 750.5 A 2 2 0 0 1 1500.5 748.5 Z " fill-rule="nonzero" fill="#ff0000" stroke="none" />
</svg>