<?xml version="1.0" encoding="utf-8"?>
<svg version="1.1" xmlns:xlink="http://www.w3.org/1999/xlink" width="8px" height="14px" xmlns="http://www.w3.org/2000/svg">
  <g transform="matrix(1 0 0 1 -42 -144 )">
    <path d="M 7.86254295532646 0.841683366733466  C 7.95418098510882 0.935203740814962  8 1.04275217100868  8 1.16432865731463  C 8 1.28590514362057  7.95418098510882 1.39345357381429  7.86254295532646 1.48697394789579  L 2.46048109965636 7  L 7.86254295532646 12.5130260521042  C 7.95418098510882 12.6065464261857  8 12.7140948563794  8 12.8356713426854  C 8 12.9572478289913  7.95418098510882 13.064796259185  7.86254295532646 13.1583166332665  L 7.17525773195876 13.8597194388778  C 7.0836197021764 13.9532398129593  6.97823596792669 14  6.85910652920962 14  C 6.73997709049256 14  6.63459335624284 13.9532398129593  6.54295532646048 13.8597194388778  L 0.13745704467354 7.32264529058116  C 0.0458190148911799 7.22912491649967  0 7.12157648630594  0 7  C 0 6.87842351369405  0.0458190148911799 6.77087508350033  0.13745704467354 6.67735470941884  L 6.54295532646048 0.140280561122245  C 6.63459335624284 0.0467601870407477  6.73997709049256 0  6.85910652920962 0  C 6.97823596792669 0  7.0836197021764 0.0467601870407477  7.17525773195876 0.140280561122245  L 7.86254295532646 0.841683366733466  Z " fill-rule="nonzero" fill="#333333" stroke="none" transform="matrix(1 0 0 1 42 144 )" />
  </g>
</svg>