<?xml version="1.0" encoding="utf-8"?>
<svg version="1.1" xmlns:xlink="http://www.w3.org/1999/xlink" width="10px" height="13px" preserveAspectRatio="xMidYMin meet" viewBox="916 309  8 13" xmlns="http://www.w3.org/2000/svg">
  <path d="M 848 314.5  L 920.5 314.5  L 920.5 317.5  L 933.5 317.5  " stroke-width="1" stroke="#ff0000" fill="none" />
  <path d="M 846 311.5  A 3 3 0 0 0 843 314.5 A 3 3 0 0 0 846 317.5 A 3 3 0 0 0 849 314.5 A 3 3 0 0 0 846 311.5 Z M 846 312.5  A 2 2 0 0 1 848 314.5 A 2 2 0 0 1 846 316.5 A 2 2 0 0 1 844 314.5 A 2 2 0 0 1 846 312.5 Z M 935.5 314.5  A 3 3 0 0 0 932.5 317.5 A 3 3 0 0 0 935.5 320.5 A 3 3 0 0 0 938.5 317.5 A 3 3 0 0 0 935.5 314.5 Z M 935.5 315.5  A 2 2 0 0 1 937.5 317.5 A 2 2 0 0 1 935.5 319.5 A 2 2 0 0 1 933.5 317.5 A 2 2 0 0 1 935.5 315.5 Z " fill-rule="nonzero" fill="#ff0000" stroke="none" />
</svg>