<?xml version="1.0" encoding="utf-8"?>
<svg version="1.1" xmlns:xlink="http://www.w3.org/1999/xlink" width="18px" height="18px" preserveAspectRatio="xMinYMid meet" viewBox="926 466  18 16" xmlns="http://www.w3.org/2000/svg">
  <path d="M 848 407.5  L 920.5 407.5  L 920.5 474.5  L 933.5 474.5  " stroke-width="1" stroke="#ff0000" fill="none" />
  <path d="M 846 404.5  A 3 3 0 0 0 843 407.5 A 3 3 0 0 0 846 410.5 A 3 3 0 0 0 849 407.5 A 3 3 0 0 0 846 404.5 Z M 846 405.5  A 2 2 0 0 1 848 407.5 A 2 2 0 0 1 846 409.5 A 2 2 0 0 1 844 407.5 A 2 2 0 0 1 846 405.5 Z M 935.5 471.5  A 3 3 0 0 0 932.5 474.5 A 3 3 0 0 0 935.5 477.5 A 3 3 0 0 0 938.5 474.5 A 3 3 0 0 0 935.5 471.5 Z M 935.5 472.5  A 2 2 0 0 1 937.5 474.5 A 2 2 0 0 1 935.5 476.5 A 2 2 0 0 1 933.5 474.5 A 2 2 0 0 1 935.5 472.5 Z " fill-rule="nonzero" fill="#ff0000" stroke="none" />
</svg>