<?xml version="1.0" encoding="utf-8"?>
<svg version="1.1" xmlns:xlink="http://www.w3.org/1999/xlink" width="18px" height="18px" preserveAspectRatio="xMinYMid meet" viewBox="853 190  18 16" xmlns="http://www.w3.org/2000/svg">
  <path d="M 864 198.5  L 933.5 198.5  " stroke-width="1" stroke="#ff0000" fill="none" />
  <path d="M 862 195.5  A 3 3 0 0 0 859 198.5 A 3 3 0 0 0 862 201.5 A 3 3 0 0 0 865 198.5 A 3 3 0 0 0 862 195.5 Z M 862 196.5  A 2 2 0 0 1 864 198.5 A 2 2 0 0 1 862 200.5 A 2 2 0 0 1 860 198.5 A 2 2 0 0 1 862 196.5 Z M 935.5 195.5  A 3 3 0 0 0 932.5 198.5 A 3 3 0 0 0 935.5 201.5 A 3 3 0 0 0 938.5 198.5 A 3 3 0 0 0 935.5 195.5 Z M 935.5 196.5  A 2 2 0 0 1 937.5 198.5 A 2 2 0 0 1 935.5 200.5 A 2 2 0 0 1 933.5 198.5 A 2 2 0 0 1 935.5 196.5 Z " fill-rule="nonzero" fill="#ff0000" stroke="none" />
</svg>