<?xml version="1.0" encoding="utf-8"?>
<svg version="1.1" xmlns:xlink="http://www.w3.org/1999/xlink" width="10px" height="23px" preserveAspectRatio="xMidYMin meet" viewBox="916 376  8 23" xmlns="http://www.w3.org/2000/svg">
  <path d="M 840.5 373  L 840.5 381.5  L 920.5 381.5  L 920.5 394.5  L 933.5 394.5  " stroke-width="1" stroke="#ff0000" fill="none" />
  <path d="M 840.5 368  A 3 3 0 0 0 837.5 371 A 3 3 0 0 0 840.5 374 A 3 3 0 0 0 843.5 371 A 3 3 0 0 0 840.5 368 Z M 840.5 369  A 2 2 0 0 1 842.5 371 A 2 2 0 0 1 840.5 373 A 2 2 0 0 1 838.5 371 A 2 2 0 0 1 840.5 369 Z M 935.5 391.5  A 3 3 0 0 0 932.5 394.5 A 3 3 0 0 0 935.5 397.5 A 3 3 0 0 0 938.5 394.5 A 3 3 0 0 0 935.5 391.5 Z M 935.5 392.5  A 2 2 0 0 1 937.5 394.5 A 2 2 0 0 1 935.5 396.5 A 2 2 0 0 1 933.5 394.5 A 2 2 0 0 1 935.5 392.5 Z " fill-rule="nonzero" fill="#ff0000" stroke="none" />
</svg>