<?xml version="1.0" encoding="utf-8"?>
<svg version="1.1" xmlns:xlink="http://www.w3.org/1999/xlink" width="672px" height="10px" preserveAspectRatio="xMinYMid meet" viewBox="329 437  672 8" xmlns="http://www.w3.org/2000/svg">
  <path d="M 334 441.5  L 991.5 441.5  " stroke-width="1" stroke="#ff0000" fill="none" />
  <path d="M 332 438.5  A 3 3 0 0 0 329 441.5 A 3 3 0 0 0 332 444.5 A 3 3 0 0 0 335 441.5 A 3 3 0 0 0 332 438.5 Z M 332 439.5  A 2 2 0 0 1 334 441.5 A 2 2 0 0 1 332 443.5 A 2 2 0 0 1 330 441.5 A 2 2 0 0 1 332 439.5 Z M 993.5 438.5  A 3 3 0 0 0 990.5 441.5 A 3 3 0 0 0 993.5 444.5 A 3 3 0 0 0 996.5 441.5 A 3 3 0 0 0 993.5 438.5 Z M 993.5 439.5  A 2 2 0 0 1 995.5 441.5 A 2 2 0 0 1 993.5 443.5 A 2 2 0 0 1 991.5 441.5 A 2 2 0 0 1 993.5 439.5 Z " fill-rule="nonzero" fill="#ff0000" stroke="none" />
</svg>