<?xml version="1.0" encoding="utf-8"?>
<svg version="1.1" xmlns:xlink="http://www.w3.org/1999/xlink" width="10px" height="17px" xmlns="http://www.w3.org/2000/svg">
  <g transform="matrix(1 0 0 1 -45 -146 )">
    <path d="M 9.82817869415807 1.02204408817635  C 9.94272623138603 1.13560454241817  10 1.26619906479626  10 1.41382765531062  C 10 1.56145624582498  9.94272623138603 1.69205076820307  9.82817869415807 1.80561122244489  L 3.07560137457045 8.5  L 9.82817869415807 15.1943887775551  C 9.94272623138603 15.3079492317969  10 15.438543754175  10 15.5861723446894  C 10 15.7338009352037  9.94272623138603 15.8643954575818  9.82817869415807 15.9779559118236  L 8.96907216494845 16.8296593186373  C 8.8545246277205 16.9432197728791  8.72279495990836 17  8.57388316151203 17  C 8.4249713631157 17  8.29324169530355 16.9432197728791  8.1786941580756 16.8296593186373  L 0.171821305841924 8.89178356713427  C 0.0572737686139748 8.77822311289245  0 8.64762859051436  0 8.5  C 0 8.35237140948564  0.0572737686139748 8.22177688710755  0.171821305841924 8.10821643286573  L 8.1786941580756 0.170340681362726  C 8.29324169530355 0.0567802271209079  8.4249713631157 0  8.57388316151203 0  C 8.72279495990836 0  8.8545246277205 0.0567802271209079  8.96907216494845 0.170340681362726  L 9.82817869415807 1.02204408817635  Z " fill-rule="nonzero" fill="#333333" stroke="none" transform="matrix(1 0 0 1 45 146 )" />
  </g>
</svg>