<?xml version="1.0" encoding="utf-8"?>
<svg version="1.1" xmlns:xlink="http://www.w3.org/1999/xlink" width="18px" height="18px" preserveAspectRatio="xMinYMid meet" viewBox="294 362  18 16" xmlns="http://www.w3.org/2000/svg">
  <path d="M 305 370.5  L 450.5 370.5  L 450.5 372.5  L 464.5 372.5  " stroke-width="1" stroke="#ff0000" fill="none" />
  <path d="M 303 367.5  A 3 3 0 0 0 300 370.5 A 3 3 0 0 0 303 373.5 A 3 3 0 0 0 306 370.5 A 3 3 0 0 0 303 367.5 Z M 303 368.5  A 2 2 0 0 1 305 370.5 A 2 2 0 0 1 303 372.5 A 2 2 0 0 1 301 370.5 A 2 2 0 0 1 303 368.5 Z M 466.5 369.5  A 3 3 0 0 0 463.5 372.5 A 3 3 0 0 0 466.5 375.5 A 3 3 0 0 0 469.5 372.5 A 3 3 0 0 0 466.5 369.5 Z M 466.5 370.5  A 2 2 0 0 1 468.5 372.5 A 2 2 0 0 1 466.5 374.5 A 2 2 0 0 1 464.5 372.5 A 2 2 0 0 1 466.5 370.5 Z " fill-rule="nonzero" fill="#ff0000" stroke="none" />
</svg>