<?xml version="1.0" encoding="utf-8"?>
<svg version="1.1" xmlns:xlink="http://www.w3.org/1999/xlink" width="114px" height="114px" xmlns="http://www.w3.org/2000/svg">
  <g transform="matrix(1 0 0 1 -159 -206 )">
    <path d="M 216 206  C 247.92 206  273 231.08  273 263  C 273 294.92  247.92 320  216 320  C 184.08 320  159 294.92  159 263  C 159 231.08  184.08 206  216 206  Z " fill-rule="nonzero" fill="#ffffff" stroke="none" />
    <path d="M 216 206.5  C 247.64 206.5  272.5 231.36  272.5 263  C 272.5 294.64  247.64 319.5  216 319.5  C 184.36 319.5  159.5 294.64  159.5 263  C 159.5 231.36  184.36 206.5  216 206.5  Z " stroke-width="1" stroke="#797979" fill="none" />
  </g>
</svg>