<?xml version="1.0" encoding="utf-8"?>
<svg version="1.1" xmlns:xlink="http://www.w3.org/1999/xlink" width="63px" height="58px" xmlns="http://www.w3.org/2000/svg">
  <g transform="matrix(1 0 0 1 -185 -238 )">
    <path d="M 216.5 244.479046988282  C 210.2 238.5  203.9 238.5  200.75 238.5  C 194.65 238.5  185.5 244.127586206897  185.5 254.82  C 185.5 278.256755927886  216.5 295.405601728779  216.5 295.405601728779  C 216.5 295.405601728779  247.5 278.256755927886  247.5 254.82  C 247.5 244.127586206897  238.35 238.5  232.25 238.5  C 229.1 238.5  222.8 238.5  216.5 244.479046988282  Z " fill-rule="nonzero" fill="#ffffff" stroke="none" fill-opacity="0" />
    <path d="M 216.5 243.8  C 210.2 238  203.9 238  200.75 238  C 194.45 238  185 243.8  185 254.82  C 185 278.6  216.5 296  216.5 296  C 216.5 296  248 278.6  248 254.82  C 248 243.8  238.55 238  232.25 238  C 229.1 238  222.8 238  216.5 243.8  Z M 216.5 245.158093976565  C 222.8 239  229.1 239  232.25 239  C 238.15 239  247 244.455172413793  247 254.82  C 247 277.913511855773  216.5 294.811203457558  216.5 294.811203457558  C 216.5 294.811203457558  186 277.913511855773  186 254.82  C 186 244.455172413793  194.85 239  200.75 239  C 203.9 239  210.2 239  216.5 245.158093976565  Z " fill-rule="nonzero" fill="#f2f2f2" stroke="none" />
  </g>
</svg>