<?xml version="1.0" encoding="utf-8"?>
<svg version="1.1" xmlns:xlink="http://www.w3.org/1999/xlink" width="300px" height="209px" xmlns="http://www.w3.org/2000/svg">
  <defs>
    <linearGradient gradientUnits="userSpaceOnUse" x1="71" y1="493.5" x2="371" y2="493.5" id="LinearGradient13">
      <stop id="Stop14" stop-color="#3764b3" offset="0" />
      <stop id="Stop15" stop-color="#2ea8bb" offset="1" />
    </linearGradient>
  </defs>
  <g transform="matrix(1 0 0 1 -71 -389 )">
    <path d="M 71.5 396  A 6.5 6.5 0 0 1 78 389.5 L 364 389.5  A 6.5 6.5 0 0 1 370.5 396 L 370.5 591  A 6.5 6.5 0 0 1 364 597.5 L 78 597.5  A 6.5 6.5 0 0 1 71.5 591 L 71.5 396  Z " fill-rule="nonzero" fill="#ffffff" stroke="none" />
    <path d="M 71.5 396  A 6.5 6.5 0 0 1 78 389.5 L 364 389.5  A 6.5 6.5 0 0 1 370.5 396 L 370.5 591  A 6.5 6.5 0 0 1 364 597.5 L 78 597.5  A 6.5 6.5 0 0 1 71.5 591 L 71.5 396  Z " stroke-width="1" stroke="url(#LinearGradient13)" fill="none" />
  </g>
</svg>