<?xml version="1.0" encoding="utf-8"?>
<svg version="1.1" xmlns:xlink="http://www.w3.org/1999/xlink" width="10px" height="93px" preserveAspectRatio="xMidYMin meet" viewBox="986 335  8 93" xmlns="http://www.w3.org/2000/svg">
  <path d="M 811 422.5  L 850.5 422.5  L 850.5 340.5  L 990.5 340.5  L 990.5 423.5  L 1002.5 423.5  " stroke-width="1" stroke="#ff0000" fill="none" />
  <path d="M 809 419.5  A 3 3 0 0 0 806 422.5 A 3 3 0 0 0 809 425.5 A 3 3 0 0 0 812 422.5 A 3 3 0 0 0 809 419.5 Z M 809 420.5  A 2 2 0 0 1 811 422.5 A 2 2 0 0 1 809 424.5 A 2 2 0 0 1 807 422.5 A 2 2 0 0 1 809 420.5 Z M 1004.5 420.5  A 3 3 0 0 0 1001.5 423.5 A 3 3 0 0 0 1004.5 426.5 A 3 3 0 0 0 1007.5 423.5 A 3 3 0 0 0 1004.5 420.5 Z M 1004.5 421.5  A 2 2 0 0 1 1006.5 423.5 A 2 2 0 0 1 1004.5 425.5 A 2 2 0 0 1 1002.5 423.5 A 2 2 0 0 1 1004.5 421.5 Z " fill-rule="nonzero" fill="#ff0000" stroke="none" />
</svg>