<?xml version="1.0" encoding="utf-8"?>
<svg version="1.1" xmlns:xlink="http://www.w3.org/1999/xlink" width="18px" height="18px" preserveAspectRatio="xMinYMid meet" viewBox="998 469  18 16" xmlns="http://www.w3.org/2000/svg">
  <path d="M 316 442.5  L 520.5 442.5  L 520.5 650.5  L 990.5 650.5  L 990.5 460.5  L 1007.5 460.5  L 1007.5 480.5  " stroke-width="1" stroke="#ff0000" fill="none" />
  <path d="M 314 439.5  A 3 3 0 0 0 311 442.5 A 3 3 0 0 0 314 445.5 A 3 3 0 0 0 317 442.5 A 3 3 0 0 0 314 439.5 Z M 314 440.5  A 2 2 0 0 1 316 442.5 A 2 2 0 0 1 314 444.5 A 2 2 0 0 1 312 442.5 A 2 2 0 0 1 314 440.5 Z M 1007.5 475.5  A 3 3 0 0 0 1004.5 478.5 A 3 3 0 0 0 1007.5 481.5 A 3 3 0 0 0 1010.5 478.5 A 3 3 0 0 0 1007.5 475.5 Z M 1007.5 476.5  A 2 2 0 0 1 1009.5 478.5 A 2 2 0 0 1 1007.5 480.5 A 2 2 0 0 1 1005.5 478.5 A 2 2 0 0 1 1007.5 476.5 Z " fill-rule="nonzero" fill="#ff0000" stroke="none" />
</svg>