<?xml version="1.0" encoding="utf-8"?>
<svg version="1.1" xmlns:xlink="http://www.w3.org/1999/xlink" width="18px" height="18px" preserveAspectRatio="xMinYMid meet" viewBox="475 685  18 16" xmlns="http://www.w3.org/2000/svg">
  <path d="M 383 692.5  L 470.5 692.5  L 470.5 693.5  L 482.5 693.5  " stroke-width="1" stroke="#ff0000" fill="none" />
  <path d="M 381 689.5  A 3 3 0 0 0 378 692.5 A 3 3 0 0 0 381 695.5 A 3 3 0 0 0 384 692.5 A 3 3 0 0 0 381 689.5 Z M 381 690.5  A 2 2 0 0 1 383 692.5 A 2 2 0 0 1 381 694.5 A 2 2 0 0 1 379 692.5 A 2 2 0 0 1 381 690.5 Z M 484.5 690.5  A 3 3 0 0 0 481.5 693.5 A 3 3 0 0 0 484.5 696.5 A 3 3 0 0 0 487.5 693.5 A 3 3 0 0 0 484.5 690.5 Z M 484.5 691.5  A 2 2 0 0 1 486.5 693.5 A 2 2 0 0 1 484.5 695.5 A 2 2 0 0 1 482.5 693.5 A 2 2 0 0 1 484.5 691.5 Z " fill-rule="nonzero" fill="#ff0000" stroke="none" />
</svg>