<?xml version="1.0" encoding="utf-8"?>
<svg version="1.1" xmlns:xlink="http://www.w3.org/1999/xlink" width="44px" height="44px" xmlns="http://www.w3.org/2000/svg">
  <g transform="matrix(1 0 0 1 -768 -431 )">
    <path d="M 790 431  C 802.32 431  812 440.68  812 453  C 812 465.32  802.32 475  790 475  C 777.68 475  768 465.32  768 453  C 768 440.68  777.68 431  790 431  Z " fill-rule="nonzero" fill="#f2f2f2" stroke="none" />
    <path d="M 790 431.5  C 802.04 431.5  811.5 440.96  811.5 453  C 811.5 465.04  802.04 474.5  790 474.5  C 777.96 474.5  768.5 465.04  768.5 453  C 768.5 440.96  777.96 431.5  790 431.5  Z " stroke-width="1" stroke="#a1a1a1" fill="none" />
  </g>
</svg>