<?xml version="1.0" encoding="utf-8"?>
<svg version="1.1" xmlns:xlink="http://www.w3.org/1999/xlink" width="18px" height="18px" preserveAspectRatio="xMinYMid meet" viewBox="1457 342  18 16" xmlns="http://www.w3.org/2000/svg">
  <path d="M 1377 350.5  L 1464.5 350.5  " stroke-width="1" stroke="#ff0000" fill="none" />
  <path d="M 1375 347.5  A 3 3 0 0 0 1372 350.5 A 3 3 0 0 0 1375 353.5 A 3 3 0 0 0 1378 350.5 A 3 3 0 0 0 1375 347.5 Z M 1375 348.5  A 2 2 0 0 1 1377 350.5 A 2 2 0 0 1 1375 352.5 A 2 2 0 0 1 1373 350.5 A 2 2 0 0 1 1375 348.5 Z M 1466.5 347.5  A 3 3 0 0 0 1463.5 350.5 A 3 3 0 0 0 1466.5 353.5 A 3 3 0 0 0 1469.5 350.5 A 3 3 0 0 0 1466.5 347.5 Z M 1466.5 348.5  A 2 2 0 0 1 1468.5 350.5 A 2 2 0 0 1 1466.5 352.5 A 2 2 0 0 1 1464.5 350.5 A 2 2 0 0 1 1466.5 348.5 Z " fill-rule="nonzero" fill="#ff0000" stroke="none" />
</svg>