<?xml version="1.0" encoding="utf-8"?>
<svg version="1.1" xmlns:xlink="http://www.w3.org/1999/xlink" width="24px" height="10px" preserveAspectRatio="xMinYMid meet" viewBox="1435 404  24 8" xmlns="http://www.w3.org/2000/svg">
  <path d="M 1354 403.5  L 1440.5 403.5  L 1440.5 408.5  L 1454.5 408.5  " stroke-width="1" stroke="#ff0000" fill="none" />
  <path d="M 1352 400.5  A 3 3 0 0 0 1349 403.5 A 3 3 0 0 0 1352 406.5 A 3 3 0 0 0 1355 403.5 A 3 3 0 0 0 1352 400.5 Z M 1352 401.5  A 2 2 0 0 1 1354 403.5 A 2 2 0 0 1 1352 405.5 A 2 2 0 0 1 1350 403.5 A 2 2 0 0 1 1352 401.5 Z M 1456.5 405.5  A 3 3 0 0 0 1453.5 408.5 A 3 3 0 0 0 1456.5 411.5 A 3 3 0 0 0 1459.5 408.5 A 3 3 0 0 0 1456.5 405.5 Z M 1456.5 406.5  A 2 2 0 0 1 1458.5 408.5 A 2 2 0 0 1 1456.5 410.5 A 2 2 0 0 1 1454.5 408.5 A 2 2 0 0 1 1456.5 406.5 Z " fill-rule="nonzero" fill="#ff0000" stroke="none" />
</svg>