<?xml version="1.0" encoding="utf-8"?>
<svg version="1.1" xmlns:xlink="http://www.w3.org/1999/xlink" width="10px" height="36.3999999999999px" preserveAspectRatio="xMidYMin meet" viewBox="1454 232.6  8 36.3999999999999" xmlns="http://www.w3.org/2000/svg">
  <path d="M 1372 238.1  L 1458.5 238.1  L 1458.5 264.5  L 1466.5 264.5  " stroke-width="1" stroke="#ff0000" fill="none" />
  <path d="M 1373.9 235.1  A 3 3 0 0 0 1370.9 238.1 A 3 3 0 0 0 1373.9 241.1 A 3 3 0 0 0 1376.9 238.1 A 3 3 0 0 0 1373.9 235.1 Z M 1373.9 236.1  A 2 2 0 0 1 1375.9 238.1 A 2 2 0 0 1 1373.9 240.1 A 2 2 0 0 1 1371.9 238.1 A 2 2 0 0 1 1373.9 236.1 Z M 1468.5 261.5  A 3 3 0 0 0 1465.5 264.5 A 3 3 0 0 0 1468.5 267.5 A 3 3 0 0 0 1471.5 264.5 A 3 3 0 0 0 1468.5 261.5 Z M 1468.5 262.5  A 2 2 0 0 1 1470.5 264.5 A 2 2 0 0 1 1468.5 266.5 A 2 2 0 0 1 1466.5 264.5 A 2 2 0 0 1 1468.5 262.5 Z " fill-rule="nonzero" fill="#ff0000" stroke="none" />
</svg>