<?xml version="1.0" encoding="utf-8"?>
<svg version="1.1" xmlns:xlink="http://www.w3.org/1999/xlink" width="24px" height="10px" preserveAspectRatio="xMinYMid meet" viewBox="1435 598  24 8" xmlns="http://www.w3.org/2000/svg">
  <path d="M 1363 532.5  L 1440.5 532.5  L 1440.5 602.5  L 1454 602.5  " stroke-width="1" stroke="#ff0000" fill="none" />
  <path d="M 1361 529.5  A 3 3 0 0 0 1358 532.5 A 3 3 0 0 0 1361 535.5 A 3 3 0 0 0 1364 532.5 A 3 3 0 0 0 1361 529.5 Z M 1361 530.5  A 2 2 0 0 1 1363 532.5 A 2 2 0 0 1 1361 534.5 A 2 2 0 0 1 1359 532.5 A 2 2 0 0 1 1361 530.5 Z M 1456 599.5  A 3 3 0 0 0 1453 602.5 A 3 3 0 0 0 1456 605.5 A 3 3 0 0 0 1459 602.5 A 3 3 0 0 0 1456 599.5 Z M 1456 600.5  A 2 2 0 0 1 1458 602.5 A 2 2 0 0 1 1456 604.5 A 2 2 0 0 1 1454 602.5 A 2 2 0 0 1 1456 600.5 Z " fill-rule="nonzero" fill="#ff0000" stroke="none" />
</svg>