<?xml version="1.0" encoding="utf-8"?>
<svg version="1.1" xmlns:xlink="http://www.w3.org/1999/xlink" width="18px" height="18px" preserveAspectRatio="xMinYMid meet" viewBox="1365 655  18 16" xmlns="http://www.w3.org/2000/svg">
  <path d="M 1376 663.5  L 1440.5 663.5  L 1440.5 733.5  L 1454.5 733.5  " stroke-width="1" stroke="#ff0000" fill="none" />
  <path d="M 1374 660.5  A 3 3 0 0 0 1371 663.5 A 3 3 0 0 0 1374 666.5 A 3 3 0 0 0 1377 663.5 A 3 3 0 0 0 1374 660.5 Z M 1374 661.5  A 2 2 0 0 1 1376 663.5 A 2 2 0 0 1 1374 665.5 A 2 2 0 0 1 1372 663.5 A 2 2 0 0 1 1374 661.5 Z M 1456.5 730.5  A 3 3 0 0 0 1453.5 733.5 A 3 3 0 0 0 1456.5 736.5 A 3 3 0 0 0 1459.5 733.5 A 3 3 0 0 0 1456.5 730.5 Z M 1456.5 731.5  A 2 2 0 0 1 1458.5 733.5 A 2 2 0 0 1 1456.5 735.5 A 2 2 0 0 1 1454.5 733.5 A 2 2 0 0 1 1456.5 731.5 Z " fill-rule="nonzero" fill="#ff0000" stroke="none" />
</svg>