<?xml version="1.0" encoding="utf-8"?>
<svg version="1.1" xmlns:xlink="http://www.w3.org/1999/xlink" width="101px" height="10px" preserveAspectRatio="xMinYMid meet" viewBox="384 639  101 8" xmlns="http://www.w3.org/2000/svg">
  <path d="M 389 643.5  L 480.5 643.5  L 480.5 644.5  L 488.5 644.5  " stroke-width="1" stroke="#ff0000" fill="none" />
  <path d="M 387 640.5  A 3 3 0 0 0 384 643.5 A 3 3 0 0 0 387 646.5 A 3 3 0 0 0 390 643.5 A 3 3 0 0 0 387 640.5 Z M 387 641.5  A 2 2 0 0 1 389 643.5 A 2 2 0 0 1 387 645.5 A 2 2 0 0 1 385 643.5 A 2 2 0 0 1 387 641.5 Z M 490.5 641.5  A 3 3 0 0 0 487.5 644.5 A 3 3 0 0 0 490.5 647.5 A 3 3 0 0 0 493.5 644.5 A 3 3 0 0 0 490.5 641.5 Z M 490.5 642.5  A 2 2 0 0 1 492.5 644.5 A 2 2 0 0 1 490.5 646.5 A 2 2 0 0 1 488.5 644.5 A 2 2 0 0 1 490.5 642.5 Z " fill-rule="nonzero" fill="#ff0000" stroke="none" />
</svg>