<?xml version="1.0" encoding="utf-8"?>
<svg version="1.1" xmlns:xlink="http://www.w3.org/1999/xlink" width="18px" height="18px" preserveAspectRatio="xMinYMid meet" viewBox="1481 752  18 16" xmlns="http://www.w3.org/2000/svg">
  <path d="M 903 760.5  L 1488.5 760.5  " stroke-width="1" stroke="#ff0000" fill="none" />
  <path d="M 901 757.5  A 3 3 0 0 0 898 760.5 A 3 3 0 0 0 901 763.5 A 3 3 0 0 0 904 760.5 A 3 3 0 0 0 901 757.5 Z M 901 758.5  A 2 2 0 0 1 903 760.5 A 2 2 0 0 1 901 762.5 A 2 2 0 0 1 899 760.5 A 2 2 0 0 1 901 758.5 Z M 1490.5 757.5  A 3 3 0 0 0 1487.5 760.5 A 3 3 0 0 0 1490.5 763.5 A 3 3 0 0 0 1493.5 760.5 A 3 3 0 0 0 1490.5 757.5 Z M 1490.5 758.5  A 2 2 0 0 1 1492.5 760.5 A 2 2 0 0 1 1490.5 762.5 A 2 2 0 0 1 1488.5 760.5 A 2 2 0 0 1 1490.5 758.5 Z " fill-rule="nonzero" fill="#ff0000" stroke="none" />
</svg>