<?xml version="1.0" encoding="utf-8"?>
<svg version="1.1" xmlns:xlink="http://www.w3.org/1999/xlink" width="18px" height="18px" preserveAspectRatio="xMinYMid meet" viewBox="991 196  18 16" xmlns="http://www.w3.org/2000/svg">
  <path d="M 696 194.5  L 990.5 194.5  L 990.5 204.5  L 998.5 204.5  " stroke-width="1" stroke="#ff0000" fill="none" />
  <path d="M 694 191.5  A 3 3 0 0 0 691 194.5 A 3 3 0 0 0 694 197.5 A 3 3 0 0 0 697 194.5 A 3 3 0 0 0 694 191.5 Z M 694 192.5  A 2 2 0 0 1 696 194.5 A 2 2 0 0 1 694 196.5 A 2 2 0 0 1 692 194.5 A 2 2 0 0 1 694 192.5 Z M 1000.5 201.5  A 3 3 0 0 0 997.5 204.5 A 3 3 0 0 0 1000.5 207.5 A 3 3 0 0 0 1003.5 204.5 A 3 3 0 0 0 1000.5 201.5 Z M 1000.5 202.5  A 2 2 0 0 1 1002.5 204.5 A 2 2 0 0 1 1000.5 206.5 A 2 2 0 0 1 998.5 204.5 A 2 2 0 0 1 1000.5 202.5 Z " fill-rule="nonzero" fill="#ff0000" stroke="none" />
</svg>