<?xml version="1.0" encoding="utf-8"?>
<svg version="1.1" xmlns:xlink="http://www.w3.org/1999/xlink" width="10px" height="8px" preserveAspectRatio="xMinYMid meet" viewBox="992 1145  10 6" xmlns="http://www.w3.org/2000/svg">
  <path d="M 765 1149.5  L 997.5 1149.5  " stroke-width="1" stroke="#ff0000" fill="none" />
  <path d="M 763 1146.5  A 3 3 0 0 0 760 1149.5 A 3 3 0 0 0 763 1152.5 A 3 3 0 0 0 766 1149.5 A 3 3 0 0 0 763 1146.5 Z M 763 1147.5  A 2 2 0 0 1 765 1149.5 A 2 2 0 0 1 763 1151.5 A 2 2 0 0 1 761 1149.5 A 2 2 0 0 1 763 1147.5 Z M 997.5 1147  A 3 3 0 0 0 994.5 1150 A 3 3 0 0 0 997.5 1153 A 3 3 0 0 0 1000.5 1150 A 3 3 0 0 0 997.5 1147 Z M 997.5 1148  A 2 2 0 0 1 999.5 1150 A 2 2 0 0 1 997.5 1152 A 2 2 0 0 1 995.5 1150 A 2 2 0 0 1 997.5 1148 Z " fill-rule="nonzero" fill="#ff0000" stroke="none" />
</svg>