<?xml version="1.0" encoding="utf-8"?>
<svg version="1.1" xmlns:xlink="http://www.w3.org/1999/xlink" width="187px" height="10px" preserveAspectRatio="xMinYMid meet" viewBox="798 697  187 8" xmlns="http://www.w3.org/2000/svg">
  <path d="M 803 701.5  L 980.5 701.5  L 980.5 704.5  L 989.5 704.5  " stroke-width="1" stroke="#ff0000" fill="none" />
  <path d="M 801 698.5  A 3 3 0 0 0 798 701.5 A 3 3 0 0 0 801 704.5 A 3 3 0 0 0 804 701.5 A 3 3 0 0 0 801 698.5 Z M 801 699.5  A 2 2 0 0 1 803 701.5 A 2 2 0 0 1 801 703.5 A 2 2 0 0 1 799 701.5 A 2 2 0 0 1 801 699.5 Z M 991.5 701.5  A 3 3 0 0 0 988.5 704.5 A 3 3 0 0 0 991.5 707.5 A 3 3 0 0 0 994.5 704.5 A 3 3 0 0 0 991.5 701.5 Z M 991.5 702.5  A 2 2 0 0 1 993.5 704.5 A 2 2 0 0 1 991.5 706.5 A 2 2 0 0 1 989.5 704.5 A 2 2 0 0 1 991.5 702.5 Z " fill-rule="nonzero" fill="#ff0000" stroke="none" />
</svg>