<?xml version="1.0" encoding="utf-8"?>
<svg version="1.1" xmlns:xlink="http://www.w3.org/1999/xlink" width="113px" height="10px" preserveAspectRatio="xMinYMid meet" viewBox="378 461  113 8" xmlns="http://www.w3.org/2000/svg">
  <path d="M 487 465.5  L 383.5 465.5  " stroke-width="1" stroke="#ff0000" fill="none" />
  <path d="M 489 462.5  A 3 3 0 0 0 486 465.5 A 3 3 0 0 0 489 468.5 A 3 3 0 0 0 492 465.5 A 3 3 0 0 0 489 462.5 Z M 489 463.5  A 2 2 0 0 1 491 465.5 A 2 2 0 0 1 489 467.5 A 2 2 0 0 1 487 465.5 A 2 2 0 0 1 489 463.5 Z M 383.5 462  A 3 3 0 0 0 380.5 465 A 3 3 0 0 0 383.5 468 A 3 3 0 0 0 386.5 465 A 3 3 0 0 0 383.5 462 Z M 383.5 463  A 2 2 0 0 1 385.5 465 A 2 2 0 0 1 383.5 467 A 2 2 0 0 1 381.5 465 A 2 2 0 0 1 383.5 463 Z " fill-rule="nonzero" fill="#ff0000" stroke="none" />
</svg>