<?xml version="1.0" encoding="utf-8"?>
<svg version="1.1" xmlns:xlink="http://www.w3.org/1999/xlink" width="6px" height="10px" xmlns="http://www.w3.org/2000/svg">
  <defs>
    <linearGradient gradientUnits="userSpaceOnUse" x1="0" y1="5" x2="6" y2="5" id="LinearGradient16">
      <stop id="Stop17" stop-color="#ffffff" offset="0" />
      <stop id="Stop18" stop-color="#2ea8bb" offset="1" />
    </linearGradient>
  </defs>
  <g transform="matrix(1 0 0 1 -253 -700 )">
    <path d="M 5.89690721649484 4.76953907815631  C 5.96563573883162 4.83633934535738  6 4.91315965263861  6 5  C 6 5.08684034736139  5.96563573883162 5.16366065464262  5.89690721649484 5.23046092184369  L 1.09278350515464 9.8997995991984  C 1.02405498281787 9.96659986639947  0.945017182130584 10  0.855670103092783 10  C 0.766323024054983 10  0.687285223367698 9.96659986639947  0.618556701030928 9.8997995991984  L 0.103092783505155 9.39879759519038  C 0.0343642611683849 9.33199732798931  0 9.25517702070808  0 9.16833667334669  C 0 9.0814963259853  0.0343642611683849 9.00467601870407  0.103092783505155 8.93787575150301  L 4.15463917525773 5  L 0.103092783505155 1.06212424849699  C 0.0343642611683849 0.995323981295925  0 0.918503674014696  0 0.831663326653307  C 0 0.744822979291916  0.0343642611683849 0.668002672010687  0.103092783505155 0.601202404809619  L 0.618556701030928 0.100200400801603  C 0.687285223367698 0.0334001336005341  0.766323024054983 0  0.855670103092783 0  C 0.945017182130584 0  1.02405498281787 0.0334001336005341  1.09278350515464 0.100200400801603  L 5.89690721649484 4.76953907815631  Z " fill-rule="nonzero" fill="url(#LinearGradient16)" stroke="none" transform="matrix(1 0 0 1 253 700 )" />
  </g>
</svg>