<?xml version="1.0" encoding="utf-8"?>
<svg version="1.1" xmlns:xlink="http://www.w3.org/1999/xlink" width="18px" height="18px" preserveAspectRatio="xMinYMid meet" viewBox="838 189  18 16" xmlns="http://www.w3.org/2000/svg">
  <path d="M 847.5 200  L 847.5 201.5  L 1000.5 201.5  L 1000.5 202.5  L 1005.5 202.5  " stroke-width="1" stroke="#ff0000" fill="none" />
  <path d="M 848 198.5  A 3 3 0 0 0 845 201.5 A 3 3 0 0 0 848 204.5 A 3 3 0 0 0 851 201.5 A 3 3 0 0 0 848 198.5 Z M 848 199.5  A 2 2 0 0 1 850 201.5 A 2 2 0 0 1 848 203.5 A 2 2 0 0 1 846 201.5 A 2 2 0 0 1 848 199.5 Z M 1007.5 199.5  A 3 3 0 0 0 1004.5 202.5 A 3 3 0 0 0 1007.5 205.5 A 3 3 0 0 0 1010.5 202.5 A 3 3 0 0 0 1007.5 199.5 Z M 1007.5 200.5  A 2 2 0 0 1 1009.5 202.5 A 2 2 0 0 1 1007.5 204.5 A 2 2 0 0 1 1005.5 202.5 A 2 2 0 0 1 1007.5 200.5 Z " fill-rule="nonzero" fill="#ff0000" stroke="none" />
</svg>