<?xml version="1.0" encoding="utf-8"?>
<svg version="1.1" xmlns:xlink="http://www.w3.org/1999/xlink" width="18px" height="18px" preserveAspectRatio="xMinYMid meet" viewBox="851 368  18 16" xmlns="http://www.w3.org/2000/svg">
  <path d="M 862 376.5  L 1000.5 376.5  L 1000.5 377.5  L 1005.5 377.5  " stroke-width="1" stroke="#ff0000" fill="none" />
  <path d="M 860 373.5  A 3 3 0 0 0 857 376.5 A 3 3 0 0 0 860 379.5 A 3 3 0 0 0 863 376.5 A 3 3 0 0 0 860 373.5 Z M 860 374.5  A 2 2 0 0 1 862 376.5 A 2 2 0 0 1 860 378.5 A 2 2 0 0 1 858 376.5 A 2 2 0 0 1 860 374.5 Z M 1007.5 374.5  A 3 3 0 0 0 1004.5 377.5 A 3 3 0 0 0 1007.5 380.5 A 3 3 0 0 0 1010.5 377.5 A 3 3 0 0 0 1007.5 374.5 Z M 1007.5 375.5  A 2 2 0 0 1 1009.5 377.5 A 2 2 0 0 1 1007.5 379.5 A 2 2 0 0 1 1005.5 377.5 A 2 2 0 0 1 1007.5 375.5 Z " fill-rule="nonzero" fill="#ff0000" stroke="none" />
</svg>