<?xml version="1.0" encoding="utf-8"?>
<svg version="1.1" xmlns:xlink="http://www.w3.org/1999/xlink" width="18px" height="18px" preserveAspectRatio="xMinYMid meet" viewBox="838 191  18 16" xmlns="http://www.w3.org/2000/svg">
  <path d="M 849 199.5  L 970.5 199.5  L 970.5 200.5  L 978.5 200.5  " stroke-width="1" stroke="#ff0000" fill="none" />
  <path d="M 847 196.5  A 3 3 0 0 0 844 199.5 A 3 3 0 0 0 847 202.5 A 3 3 0 0 0 850 199.5 A 3 3 0 0 0 847 196.5 Z M 847 197.5  A 2 2 0 0 1 849 199.5 A 2 2 0 0 1 847 201.5 A 2 2 0 0 1 845 199.5 A 2 2 0 0 1 847 197.5 Z M 980.5 197.5  A 3 3 0 0 0 977.5 200.5 A 3 3 0 0 0 980.5 203.5 A 3 3 0 0 0 983.5 200.5 A 3 3 0 0 0 980.5 197.5 Z M 980.5 198.5  A 2 2 0 0 1 982.5 200.5 A 2 2 0 0 1 980.5 202.5 A 2 2 0 0 1 978.5 200.5 A 2 2 0 0 1 980.5 198.5 Z " fill-rule="nonzero" fill="#ff0000" stroke="none" />
</svg>