<?xml version="1.0" encoding="utf-8"?>
<svg version="1.1" xmlns:xlink="http://www.w3.org/1999/xlink" width="10px" height="11px" preserveAspectRatio="xMidYMin meet" viewBox="966 372  8 11" xmlns="http://www.w3.org/2000/svg">
  <path d="M 846 377.5  L 970.5 377.5  L 970.5 378.5  L 978.5 378.5  " stroke-width="1" stroke="#ff0000" fill="none" />
  <path d="M 844 374.5  A 3 3 0 0 0 841 377.5 A 3 3 0 0 0 844 380.5 A 3 3 0 0 0 847 377.5 A 3 3 0 0 0 844 374.5 Z M 844 375.5  A 2 2 0 0 1 846 377.5 A 2 2 0 0 1 844 379.5 A 2 2 0 0 1 842 377.5 A 2 2 0 0 1 844 375.5 Z M 980.5 375.5  A 3 3 0 0 0 977.5 378.5 A 3 3 0 0 0 980.5 381.5 A 3 3 0 0 0 983.5 378.5 A 3 3 0 0 0 980.5 375.5 Z M 980.5 376.5  A 2 2 0 0 1 982.5 378.5 A 2 2 0 0 1 980.5 380.5 A 2 2 0 0 1 978.5 378.5 A 2 2 0 0 1 980.5 376.5 Z " fill-rule="nonzero" fill="#ff0000" stroke="none" />
</svg>