<?xml version="1.0" encoding="utf-8"?>
<svg version="1.1" xmlns:xlink="http://www.w3.org/1999/xlink" width="18px" height="18px" preserveAspectRatio="xMinYMid meet" viewBox="58 136  18 16" xmlns="http://www.w3.org/2000/svg">
  <path d="M 69 144.5  L 460.5 144.5  L 460.5 145.5  L 469.5 145.5  " stroke-width="1" stroke="#ff0000" fill="none" />
  <path d="M 67 141.5  A 3 3 0 0 0 64 144.5 A 3 3 0 0 0 67 147.5 A 3 3 0 0 0 70 144.5 A 3 3 0 0 0 67 141.5 Z M 67 142.5  A 2 2 0 0 1 69 144.5 A 2 2 0 0 1 67 146.5 A 2 2 0 0 1 65 144.5 A 2 2 0 0 1 67 142.5 Z M 471.5 142.5  A 3 3 0 0 0 468.5 145.5 A 3 3 0 0 0 471.5 148.5 A 3 3 0 0 0 474.5 145.5 A 3 3 0 0 0 471.5 142.5 Z M 471.5 143.5  A 2 2 0 0 1 473.5 145.5 A 2 2 0 0 1 471.5 147.5 A 2 2 0 0 1 469.5 145.5 A 2 2 0 0 1 471.5 143.5 Z " fill-rule="nonzero" fill="#ff0000" stroke="none" />
</svg>